<?xml version="1.0" encoding="UTF-8"?>
<!-- Do not edit this file with editors other than draw.io -->
<!DOCTYPE svg PUBLIC "-//W3C//DTD SVG 1.1//EN" "http://www.w3.org/Graphics/SVG/1.1/DTD/svg11.dtd">
<svg xmlns="http://www.w3.org/2000/svg" xmlns:xlink="http://www.w3.org/1999/xlink" version="1.1" width="538px" height="681px" viewBox="-0.5 -0.5 538 681" class="ge-export-svg-dark" content="&lt;mxfile host=&quot;app.diagrams.net&quot; agent=&quot;Mozilla/5.0 (X11; Linux x86_64) AppleWebKit/537.36 (KHTML, like Gecko) Chrome/124.0.0.0 Safari/537.36&quot; version=&quot;24.8.0&quot; scale=&quot;1&quot; border=&quot;0&quot;&gt;&#10;  &lt;diagram name=&quot;Page-1&quot; id=&quot;7cWSvbyQrOhvoMwdheUy&quot;&gt;&#10;    &lt;mxGraphModel dx=&quot;1420&quot; dy=&quot;774&quot; grid=&quot;1&quot; gridSize=&quot;10&quot; guides=&quot;1&quot; tooltips=&quot;1&quot; connect=&quot;1&quot; arrows=&quot;1&quot; fold=&quot;1&quot; page=&quot;1&quot; pageScale=&quot;1&quot; pageWidth=&quot;850&quot; pageHeight=&quot;1100&quot; math=&quot;0&quot; shadow=&quot;0&quot;&gt;&#10;      &lt;root&gt;&#10;        &lt;mxCell id=&quot;0&quot; /&gt;&#10;        &lt;mxCell id=&quot;1&quot; parent=&quot;0&quot; /&gt;&#10;        &lt;mxCell id=&quot;tBPTeh535Zqz1I_J7ef9-75&quot; style=&quot;edgeStyle=orthogonalEdgeStyle;rounded=0;orthogonalLoop=1;jettySize=auto;html=1;entryX=0;entryY=0.5;entryDx=0;entryDy=0;dashed=1;fillColor=#ffe6cc;strokeColor=#d79b00;&quot; edge=&quot;1&quot; parent=&quot;1&quot; source=&quot;tBPTeh535Zqz1I_J7ef9-20&quot; target=&quot;tBPTeh535Zqz1I_J7ef9-29&quot;&gt;&#10;          &lt;mxGeometry relative=&quot;1&quot; as=&quot;geometry&quot;&gt;&#10;            &lt;Array as=&quot;points&quot;&gt;&#10;              &lt;mxPoint x=&quot;60&quot; y=&quot;245&quot; /&gt;&#10;              &lt;mxPoint x=&quot;60&quot; y=&quot;485&quot; /&gt;&#10;            &lt;/Array&gt;&#10;          &lt;/mxGeometry&gt;&#10;        &lt;/mxCell&gt;&#10;        &lt;mxCell id=&quot;tBPTeh535Zqz1I_J7ef9-20&quot; value=&quot;50&quot; style=&quot;ellipse&quot; vertex=&quot;1&quot; parent=&quot;1&quot;&gt;&#10;          &lt;mxGeometry x=&quot;396&quot; y=&quot;230&quot; width=&quot;80&quot; height=&quot;30&quot; as=&quot;geometry&quot; /&gt;&#10;        &lt;/mxCell&gt;&#10;        &lt;mxCell id=&quot;tBPTeh535Zqz1I_J7ef9-21&quot; value=&quot;23&quot; style=&quot;rounded=1;fillColor=#f8cecc;strokeColor=#b85450;glass=0;sketch=1;curveFitting=1;jiggle=2;&quot; vertex=&quot;1&quot; parent=&quot;1&quot;&gt;&#10;          &lt;mxGeometry x=&quot;300&quot; y=&quot;310&quot; width=&quot;80&quot; height=&quot;30&quot; as=&quot;geometry&quot; /&gt;&#10;        &lt;/mxCell&gt;&#10;        &lt;mxCell id=&quot;tBPTeh535Zqz1I_J7ef9-22&quot; value=&quot;&quot; style=&quot;edgeStyle=elbowEdgeStyle;elbow=vertical;&quot; edge=&quot;1&quot; source=&quot;tBPTeh535Zqz1I_J7ef9-20&quot; target=&quot;tBPTeh535Zqz1I_J7ef9-21&quot; parent=&quot;1&quot;&gt;&#10;          &lt;mxGeometry relative=&quot;1&quot; as=&quot;geometry&quot; /&gt;&#10;        &lt;/mxCell&gt;&#10;        &lt;mxCell id=&quot;tBPTeh535Zqz1I_J7ef9-23&quot; value=&quot;54&quot; style=&quot;rounded=1;&quot; vertex=&quot;1&quot; parent=&quot;1&quot;&gt;&#10;          &lt;mxGeometry x=&quot;492&quot; y=&quot;310&quot; width=&quot;80&quot; height=&quot;30&quot; as=&quot;geometry&quot; /&gt;&#10;        &lt;/mxCell&gt;&#10;        &lt;mxCell id=&quot;tBPTeh535Zqz1I_J7ef9-24&quot; value=&quot;&quot; style=&quot;edgeStyle=elbowEdgeStyle;elbow=vertical;&quot; edge=&quot;1&quot; source=&quot;tBPTeh535Zqz1I_J7ef9-20&quot; target=&quot;tBPTeh535Zqz1I_J7ef9-23&quot; parent=&quot;1&quot;&gt;&#10;          &lt;mxGeometry relative=&quot;1&quot; as=&quot;geometry&quot; /&gt;&#10;        &lt;/mxCell&gt;&#10;        &lt;mxCell id=&quot;tBPTeh535Zqz1I_J7ef9-83&quot; style=&quot;edgeStyle=orthogonalEdgeStyle;rounded=0;orthogonalLoop=1;jettySize=auto;html=1;entryX=0;entryY=0.5;entryDx=0;entryDy=0;fillColor=#dae8fc;strokeColor=#6c8ebf;dashed=1;&quot; edge=&quot;1&quot; parent=&quot;1&quot; source=&quot;tBPTeh535Zqz1I_J7ef9-25&quot; target=&quot;tBPTeh535Zqz1I_J7ef9-77&quot;&gt;&#10;          &lt;mxGeometry relative=&quot;1&quot; as=&quot;geometry&quot;&gt;&#10;            &lt;Array as=&quot;points&quot;&gt;&#10;              &lt;mxPoint x=&quot;110&quot; y=&quot;405&quot; /&gt;&#10;              &lt;mxPoint x=&quot;110&quot; y=&quot;565&quot; /&gt;&#10;            &lt;/Array&gt;&#10;          &lt;/mxGeometry&gt;&#10;        &lt;/mxCell&gt;&#10;        &lt;mxCell id=&quot;tBPTeh535Zqz1I_J7ef9-25&quot; value=&quot;3&quot; style=&quot;rounded=1;&quot; vertex=&quot;1&quot; parent=&quot;1&quot;&gt;&#10;          &lt;mxGeometry x=&quot;170&quot; y=&quot;390&quot; width=&quot;80&quot; height=&quot;30&quot; as=&quot;geometry&quot; /&gt;&#10;        &lt;/mxCell&gt;&#10;        &lt;mxCell id=&quot;tBPTeh535Zqz1I_J7ef9-26&quot; value=&quot;&quot; style=&quot;edgeStyle=elbowEdgeStyle;elbow=vertical;&quot; edge=&quot;1&quot; source=&quot;tBPTeh535Zqz1I_J7ef9-21&quot; target=&quot;tBPTeh535Zqz1I_J7ef9-25&quot; parent=&quot;1&quot;&gt;&#10;          &lt;mxGeometry relative=&quot;1&quot; as=&quot;geometry&quot; /&gt;&#10;        &lt;/mxCell&gt;&#10;        &lt;mxCell id=&quot;tBPTeh535Zqz1I_J7ef9-27&quot; value=&quot;25&quot; style=&quot;rounded=1;&quot; vertex=&quot;1&quot; parent=&quot;1&quot;&gt;&#10;          &lt;mxGeometry x=&quot;390&quot; y=&quot;390&quot; width=&quot;80&quot; height=&quot;30&quot; as=&quot;geometry&quot; /&gt;&#10;        &lt;/mxCell&gt;&#10;        &lt;mxCell id=&quot;tBPTeh535Zqz1I_J7ef9-28&quot; value=&quot;&quot; style=&quot;edgeStyle=elbowEdgeStyle;elbow=vertical;&quot; edge=&quot;1&quot; source=&quot;tBPTeh535Zqz1I_J7ef9-21&quot; target=&quot;tBPTeh535Zqz1I_J7ef9-27&quot; parent=&quot;1&quot;&gt;&#10;          &lt;mxGeometry relative=&quot;1&quot; as=&quot;geometry&quot; /&gt;&#10;        &lt;/mxCell&gt;&#10;        &lt;mxCell id=&quot;tBPTeh535Zqz1I_J7ef9-29&quot; value=&quot;18&quot; style=&quot;rounded=1;fillColor=#ffe6cc;strokeColor=#d79b00;&quot; vertex=&quot;1&quot; parent=&quot;1&quot;&gt;&#10;          &lt;mxGeometry x=&quot;240&quot; y=&quot;470&quot; width=&quot;80&quot; height=&quot;30&quot; as=&quot;geometry&quot; /&gt;&#10;        &lt;/mxCell&gt;&#10;        &lt;mxCell id=&quot;tBPTeh535Zqz1I_J7ef9-30&quot; value=&quot;&quot; style=&quot;edgeStyle=elbowEdgeStyle;elbow=vertical;&quot; edge=&quot;1&quot; source=&quot;tBPTeh535Zqz1I_J7ef9-25&quot; target=&quot;tBPTeh535Zqz1I_J7ef9-29&quot; parent=&quot;1&quot;&gt;&#10;          &lt;mxGeometry relative=&quot;1&quot; as=&quot;geometry&quot; /&gt;&#10;        &lt;/mxCell&gt;&#10;        &lt;mxCell id=&quot;tBPTeh535Zqz1I_J7ef9-31&quot; value=&quot;24&quot; style=&quot;rounded=1;&quot; vertex=&quot;1&quot; parent=&quot;1&quot;&gt;&#10;          &lt;mxGeometry x=&quot;330&quot; y=&quot;470&quot; width=&quot;80&quot; height=&quot;30&quot; as=&quot;geometry&quot; /&gt;&#10;        &lt;/mxCell&gt;&#10;        &lt;mxCell id=&quot;tBPTeh535Zqz1I_J7ef9-32&quot; value=&quot;&quot; style=&quot;edgeStyle=elbowEdgeStyle;elbow=vertical;&quot; edge=&quot;1&quot; source=&quot;tBPTeh535Zqz1I_J7ef9-27&quot; target=&quot;tBPTeh535Zqz1I_J7ef9-31&quot; parent=&quot;1&quot;&gt;&#10;          &lt;mxGeometry relative=&quot;1&quot; as=&quot;geometry&quot; /&gt;&#10;        &lt;/mxCell&gt;&#10;        &lt;mxCell id=&quot;tBPTeh535Zqz1I_J7ef9-33&quot; value=&quot;26&quot; style=&quot;rounded=1;&quot; vertex=&quot;1&quot; parent=&quot;1&quot;&gt;&#10;          &lt;mxGeometry x=&quot;450&quot; y=&quot;470&quot; width=&quot;80&quot; height=&quot;30&quot; as=&quot;geometry&quot; /&gt;&#10;        &lt;/mxCell&gt;&#10;        &lt;mxCell id=&quot;tBPTeh535Zqz1I_J7ef9-34&quot; value=&quot;&quot; style=&quot;edgeStyle=elbowEdgeStyle;elbow=vertical;&quot; edge=&quot;1&quot; source=&quot;tBPTeh535Zqz1I_J7ef9-27&quot; target=&quot;tBPTeh535Zqz1I_J7ef9-33&quot; parent=&quot;1&quot;&gt;&#10;          &lt;mxGeometry relative=&quot;1&quot; as=&quot;geometry&quot; /&gt;&#10;        &lt;/mxCell&gt;&#10;        &lt;mxCell id=&quot;tBPTeh535Zqz1I_J7ef9-55&quot; value=&quot;50&quot; style=&quot;ellipse&quot; vertex=&quot;1&quot; parent=&quot;1&quot;&gt;&#10;          &lt;mxGeometry x=&quot;396&quot; y=&quot;640&quot; width=&quot;80&quot; height=&quot;30&quot; as=&quot;geometry&quot; /&gt;&#10;        &lt;/mxCell&gt;&#10;        &lt;mxCell id=&quot;tBPTeh535Zqz1I_J7ef9-57&quot; value=&quot;&quot; style=&quot;edgeStyle=elbowEdgeStyle;elbow=vertical;fillColor=#ffe6cc;strokeColor=#d79b00;&quot; edge=&quot;1&quot; parent=&quot;1&quot; source=&quot;tBPTeh535Zqz1I_J7ef9-55&quot;&gt;&#10;          &lt;mxGeometry relative=&quot;1&quot; as=&quot;geometry&quot;&gt;&#10;            &lt;mxPoint x=&quot;340&quot; y=&quot;720&quot; as=&quot;targetPoint&quot; /&gt;&#10;          &lt;/mxGeometry&gt;&#10;        &lt;/mxCell&gt;&#10;        &lt;mxCell id=&quot;tBPTeh535Zqz1I_J7ef9-58&quot; value=&quot;54&quot; style=&quot;rounded=1;&quot; vertex=&quot;1&quot; parent=&quot;1&quot;&gt;&#10;          &lt;mxGeometry x=&quot;492&quot; y=&quot;720&quot; width=&quot;80&quot; height=&quot;30&quot; as=&quot;geometry&quot; /&gt;&#10;        &lt;/mxCell&gt;&#10;        &lt;mxCell id=&quot;tBPTeh535Zqz1I_J7ef9-59&quot; value=&quot;&quot; style=&quot;edgeStyle=elbowEdgeStyle;elbow=vertical;&quot; edge=&quot;1&quot; parent=&quot;1&quot; source=&quot;tBPTeh535Zqz1I_J7ef9-55&quot; target=&quot;tBPTeh535Zqz1I_J7ef9-58&quot;&gt;&#10;          &lt;mxGeometry relative=&quot;1&quot; as=&quot;geometry&quot; /&gt;&#10;        &lt;/mxCell&gt;&#10;        &lt;mxCell id=&quot;tBPTeh535Zqz1I_J7ef9-62&quot; value=&quot;&quot; style=&quot;edgeStyle=elbowEdgeStyle;elbow=vertical;fillColor=#ffe6cc;strokeColor=#d79b00;&quot; edge=&quot;1&quot; parent=&quot;1&quot;&gt;&#10;          &lt;mxGeometry relative=&quot;1&quot; as=&quot;geometry&quot;&gt;&#10;            &lt;mxPoint x=&quot;340&quot; y=&quot;750&quot; as=&quot;sourcePoint&quot; /&gt;&#10;            &lt;mxPoint x=&quot;230&quot; y=&quot;800&quot; as=&quot;targetPoint&quot; /&gt;&#10;          &lt;/mxGeometry&gt;&#10;        &lt;/mxCell&gt;&#10;        &lt;mxCell id=&quot;tBPTeh535Zqz1I_J7ef9-63&quot; value=&quot;25&quot; style=&quot;rounded=1;&quot; vertex=&quot;1&quot; parent=&quot;1&quot;&gt;&#10;          &lt;mxGeometry x=&quot;450&quot; y=&quot;800&quot; width=&quot;80&quot; height=&quot;30&quot; as=&quot;geometry&quot; /&gt;&#10;        &lt;/mxCell&gt;&#10;        &lt;mxCell id=&quot;tBPTeh535Zqz1I_J7ef9-64&quot; value=&quot;&quot; style=&quot;edgeStyle=elbowEdgeStyle;elbow=vertical;fillColor=#ffe6cc;strokeColor=#d79b00;&quot; edge=&quot;1&quot; parent=&quot;1&quot; target=&quot;tBPTeh535Zqz1I_J7ef9-63&quot;&gt;&#10;          &lt;mxGeometry relative=&quot;1&quot; as=&quot;geometry&quot;&gt;&#10;            &lt;mxPoint x=&quot;340&quot; y=&quot;750&quot; as=&quot;sourcePoint&quot; /&gt;&#10;          &lt;/mxGeometry&gt;&#10;        &lt;/mxCell&gt;&#10;        &lt;mxCell id=&quot;tBPTeh535Zqz1I_J7ef9-65&quot; value=&quot;18&quot; style=&quot;rounded=1;fillColor=#ffe6cc;strokeColor=#d79b00;&quot; vertex=&quot;1&quot; parent=&quot;1&quot;&gt;&#10;          &lt;mxGeometry x=&quot;300&quot; y=&quot;720&quot; width=&quot;80&quot; height=&quot;30&quot; as=&quot;geometry&quot; /&gt;&#10;        &lt;/mxCell&gt;&#10;        &lt;mxCell id=&quot;tBPTeh535Zqz1I_J7ef9-67&quot; value=&quot;24&quot; style=&quot;rounded=1;&quot; vertex=&quot;1&quot; parent=&quot;1&quot;&gt;&#10;          &lt;mxGeometry x=&quot;390&quot; y=&quot;880&quot; width=&quot;80&quot; height=&quot;30&quot; as=&quot;geometry&quot; /&gt;&#10;        &lt;/mxCell&gt;&#10;        &lt;mxCell id=&quot;tBPTeh535Zqz1I_J7ef9-68&quot; value=&quot;&quot; style=&quot;edgeStyle=elbowEdgeStyle;elbow=vertical;&quot; edge=&quot;1&quot; parent=&quot;1&quot; source=&quot;tBPTeh535Zqz1I_J7ef9-63&quot; target=&quot;tBPTeh535Zqz1I_J7ef9-67&quot;&gt;&#10;          &lt;mxGeometry relative=&quot;1&quot; as=&quot;geometry&quot; /&gt;&#10;        &lt;/mxCell&gt;&#10;        &lt;mxCell id=&quot;tBPTeh535Zqz1I_J7ef9-69&quot; value=&quot;26&quot; style=&quot;rounded=1;&quot; vertex=&quot;1&quot; parent=&quot;1&quot;&gt;&#10;          &lt;mxGeometry x=&quot;510&quot; y=&quot;880&quot; width=&quot;80&quot; height=&quot;30&quot; as=&quot;geometry&quot; /&gt;&#10;        &lt;/mxCell&gt;&#10;        &lt;mxCell id=&quot;tBPTeh535Zqz1I_J7ef9-70&quot; value=&quot;&quot; style=&quot;edgeStyle=elbowEdgeStyle;elbow=vertical;&quot; edge=&quot;1&quot; parent=&quot;1&quot; source=&quot;tBPTeh535Zqz1I_J7ef9-63&quot; target=&quot;tBPTeh535Zqz1I_J7ef9-69&quot;&gt;&#10;          &lt;mxGeometry relative=&quot;1&quot; as=&quot;geometry&quot; /&gt;&#10;        &lt;/mxCell&gt;&#10;        &lt;mxCell id=&quot;tBPTeh535Zqz1I_J7ef9-71&quot; value=&quot;3&quot; style=&quot;rounded=1;&quot; vertex=&quot;1&quot; parent=&quot;1&quot;&gt;&#10;          &lt;mxGeometry x=&quot;190&quot; y=&quot;800&quot; width=&quot;80&quot; height=&quot;30&quot; as=&quot;geometry&quot; /&gt;&#10;        &lt;/mxCell&gt;&#10;        &lt;mxCell id=&quot;tBPTeh535Zqz1I_J7ef9-72&quot; value=&quot;&quot; style=&quot;shape=flexArrow;endArrow=classic;html=1;rounded=0;fillColor=#ffe6cc;strokeColor=#d79b00;&quot; edge=&quot;1&quot; parent=&quot;1&quot;&gt;&#10;          &lt;mxGeometry width=&quot;50&quot; height=&quot;50&quot; relative=&quot;1&quot; as=&quot;geometry&quot;&gt;&#10;            &lt;mxPoint x=&quot;424&quot; y=&quot;530&quot; as=&quot;sourcePoint&quot; /&gt;&#10;            &lt;mxPoint x=&quot;424&quot; y=&quot;610&quot; as=&quot;targetPoint&quot; /&gt;&#10;          &lt;/mxGeometry&gt;&#10;        &lt;/mxCell&gt;&#10;        &lt;mxCell id=&quot;tBPTeh535Zqz1I_J7ef9-74&quot; value=&quot;&quot; style=&quot;endArrow=classic;html=1;rounded=0;entryX=0;entryY=0.5;entryDx=0;entryDy=0;fillColor=#ffe6cc;strokeColor=#d79b00;&quot; edge=&quot;1&quot; parent=&quot;1&quot; target=&quot;tBPTeh535Zqz1I_J7ef9-27&quot;&gt;&#10;          &lt;mxGeometry width=&quot;50&quot; height=&quot;50&quot; relative=&quot;1&quot; as=&quot;geometry&quot;&gt;&#10;            &lt;mxPoint x=&quot;280&quot; y=&quot;470&quot; as=&quot;sourcePoint&quot; /&gt;&#10;            &lt;mxPoint x=&quot;330&quot; y=&quot;420&quot; as=&quot;targetPoint&quot; /&gt;&#10;          &lt;/mxGeometry&gt;&#10;        &lt;/mxCell&gt;&#10;        &lt;mxCell id=&quot;tBPTeh535Zqz1I_J7ef9-76&quot; value=&quot;&quot; style=&quot;endArrow=classic;html=1;rounded=0;exitX=0.5;exitY=0;exitDx=0;exitDy=0;fillColor=#ffe6cc;strokeColor=#d79b00;&quot; edge=&quot;1&quot; parent=&quot;1&quot; source=&quot;tBPTeh535Zqz1I_J7ef9-29&quot;&gt;&#10;          &lt;mxGeometry width=&quot;50&quot; height=&quot;50&quot; relative=&quot;1&quot; as=&quot;geometry&quot;&gt;&#10;            &lt;mxPoint x=&quot;200&quot; y=&quot;570&quot; as=&quot;sourcePoint&quot; /&gt;&#10;            &lt;mxPoint x=&quot;210&quot; y=&quot;420&quot; as=&quot;targetPoint&quot; /&gt;&#10;          &lt;/mxGeometry&gt;&#10;        &lt;/mxCell&gt;&#10;        &lt;mxCell id=&quot;tBPTeh535Zqz1I_J7ef9-77&quot; value=&quot;15&quot; style=&quot;rounded=1;&quot; vertex=&quot;1&quot; parent=&quot;1&quot;&gt;&#10;          &lt;mxGeometry x=&quot;180&quot; y=&quot;550&quot; width=&quot;80&quot; height=&quot;30&quot; as=&quot;geometry&quot; /&gt;&#10;        &lt;/mxCell&gt;&#10;        &lt;mxCell id=&quot;tBPTeh535Zqz1I_J7ef9-79&quot; value=&quot;&quot; style=&quot;edgeStyle=elbowEdgeStyle;elbow=vertical;&quot; edge=&quot;1&quot; parent=&quot;1&quot;&gt;&#10;          &lt;mxGeometry relative=&quot;1&quot; as=&quot;geometry&quot;&gt;&#10;            &lt;mxPoint x=&quot;280&quot; y=&quot;500&quot; as=&quot;sourcePoint&quot; /&gt;&#10;            &lt;mxPoint x=&quot;220&quot; y=&quot;550&quot; as=&quot;targetPoint&quot; /&gt;&#10;          &lt;/mxGeometry&gt;&#10;        &lt;/mxCell&gt;&#10;        &lt;mxCell id=&quot;tBPTeh535Zqz1I_J7ef9-81&quot; value=&quot;&quot; style=&quot;edgeStyle=elbowEdgeStyle;elbow=vertical;fillColor=#dae8fc;strokeColor=#6c8ebf;&quot; edge=&quot;1&quot; parent=&quot;1&quot;&gt;&#10;          &lt;mxGeometry relative=&quot;1&quot; as=&quot;geometry&quot;&gt;&#10;            &lt;mxPoint x=&quot;230&quot; y=&quot;830&quot; as=&quot;sourcePoint&quot; /&gt;&#10;            &lt;mxPoint x=&quot;300&quot; y=&quot;880&quot; as=&quot;targetPoint&quot; /&gt;&#10;          &lt;/mxGeometry&gt;&#10;        &lt;/mxCell&gt;&#10;        &lt;mxCell id=&quot;tBPTeh535Zqz1I_J7ef9-82&quot; value=&quot;15&quot; style=&quot;rounded=1;&quot; vertex=&quot;1&quot; parent=&quot;1&quot;&gt;&#10;          &lt;mxGeometry x=&quot;260&quot; y=&quot;880&quot; width=&quot;80&quot; height=&quot;30&quot; as=&quot;geometry&quot; /&gt;&#10;        &lt;/mxCell&gt;&#10;      &lt;/root&gt;&#10;    &lt;/mxGraphModel&gt;&#10;  &lt;/diagram&gt;&#10;&lt;/mxfile&gt;&#10;" style="background-color: rgb(0, 0, 0);"><defs><style type="text/css">svg.ge-export-svg-dark:not(mjx-container &gt; svg) { filter: invert(100%) hue-rotate(180deg); }&#xa;svg.ge-export-svg-dark foreignObject img,&#xa;svg.ge-export-svg-dark image:not(svg.ge-export-svg-dark switch image),&#xa;svg.ge-export-svg-dark svg:not(mjx-container &gt; svg)&#xa;{ filter: invert(100%) hue-rotate(180deg) }</style></defs><rect fill="#ffffff" width="100%" height="100%" x="0" y="0"/><g><g data-cell-id="0"><g data-cell-id="1"><g data-cell-id="tBPTeh535Zqz1I_J7ef9-75"><g><path d="M 343 15 L 7 15 L 7 255 L 180.63 255" fill="none" stroke="#d79b00" stroke-miterlimit="10" stroke-dasharray="3 3" pointer-events="stroke"/><path d="M 185.88 255 L 178.88 258.5 L 180.63 255 L 178.88 251.5 Z" fill="#d79b00" stroke="#d79b00" stroke-miterlimit="10" pointer-events="all"/></g></g><g data-cell-id="tBPTeh535Zqz1I_J7ef9-20"><g><ellipse cx="383" cy="15" rx="40" ry="15" fill="rgb(255, 255, 255)" stroke="rgb(0, 0, 0)" pointer-events="all"/></g><g><g fill="rgb(0, 0, 0)" font-family="&quot;Helvetica&quot;" text-anchor="middle" font-size="12px"><text x="382.5" y="19.5">50</text></g></g></g><g data-cell-id="tBPTeh535Zqz1I_J7ef9-21"><g><rect x="247" y="80" width="80" height="30" rx="4.5" ry="4.5" fill="none" stroke="none" pointer-events="all"/><path d="M 247.99 81.28 C 247.99 81.28 247.99 81.28 247.99 81.28 M 247.99 81.28 C 247.99 81.28 247.99 81.28 247.99 81.28 M 247.73 87.68 C 248.93 86.4 251.65 85.16 254.29 80.13 M 247.73 87.68 C 250.89 85.85 252.96 82.59 254.29 80.13 M 247.47 94.08 C 252.66 92.66 253.54 84.66 259.28 80.49 M 247.47 94.08 C 249.99 89.48 255.46 84.2 259.28 80.49 M 247.21 100.47 C 251.56 94.84 257.42 82.08 264.92 80.1 M 247.21 100.47 C 255.09 93.08 259.55 83.48 264.92 80.1 M 247.6 106.12 C 254.98 98.7 252.84 92.3 269.91 80.46 M 247.6 106.12 C 252.85 98.95 260.5 90.51 269.91 80.46 M 249.96 109.5 C 256.85 96.72 268 83.2 275.55 80.06 M 249.96 109.5 C 260.02 98.77 270.83 87.21 275.55 80.06 M 254.95 109.86 C 266.08 98.22 275.39 87.12 280.54 80.42 M 254.95 109.86 C 264.51 99.53 271.02 90.07 280.54 80.42 M 259.94 110.22 C 264.67 104.88 270.6 95.54 286.18 80.03 M 259.94 110.22 C 271.01 99.93 278.69 90.48 286.18 80.03 M 265.58 109.82 C 268.85 99.2 276.51 92.27 291.17 80.39 M 265.58 109.82 C 277.05 97.56 284.58 86.08 291.17 80.39 M 270.57 110.18 C 277.55 98.86 282.91 92.75 296.81 79.99 M 270.57 110.18 C 274.97 104.63 279.99 97.71 296.81 79.99 M 276.21 109.79 C 284.31 99.18 294.61 89.76 301.8 80.35 M 276.21 109.79 C 283.21 103.16 290.28 95.58 301.8 80.35 M 281.2 110.15 C 288.12 98.94 298.85 89.81 306.78 80.71 M 281.2 110.15 C 288.01 98.78 300.06 90.51 306.78 80.71 M 286.84 109.75 C 294.1 98.5 308.56 85.75 312.43 80.32 M 286.84 109.75 C 292.57 101.56 296.93 97.93 312.43 80.32 M 291.83 110.11 C 293.98 100.58 303.21 98.05 317.41 80.68 M 291.83 110.11 C 295.96 104.98 303.23 97.58 317.41 80.68 M 297.47 109.72 C 301.78 103.46 307.77 96.87 323.06 80.28 M 297.47 109.72 C 306.47 102.2 312.44 90.37 323.06 80.28 M 302.46 110.08 C 315.32 96.66 324.41 87.85 326.08 82.91 M 302.46 110.08 C 307.81 104.32 316.75 94.52 326.08 82.91 M 307.44 110.44 C 310.84 104.79 318.47 100.77 327.13 87.8 M 307.44 110.44 C 313.92 101.7 318.03 96.92 327.13 87.8 M 313.09 110.04 C 315.09 109.75 320.78 99.81 326.87 94.19 M 313.09 110.04 C 318.52 104.65 323.16 101.49 326.87 94.19 M 318.07 110.4 C 318.76 108.28 320.98 107.19 327.26 99.84 M 318.07 110.4 C 321.09 107.36 324.43 102.74 327.26 99.84 M 323.06 110.76 C 325.34 108.32 325.28 108.85 327 106.24 M 323.06 110.76 C 324.49 110.34 325.27 108.51 327 106.24" fill="none" stroke="#f8cecc" stroke-width="0.5" stroke-linejoin="round" stroke-linecap="round" stroke-miterlimit="10" pointer-events="all"/><path d="M 251.5 80 C 276.64 83.85 302.46 82.8 322.5 80 M 251.5 80 C 274.16 81.56 292.07 80.06 322.5 80 M 322.5 80 C 328.55 78.28 325.87 78.87 327 84.5 M 322.5 80 C 324.69 75.45 330.09 81.05 327 84.5 M 327 84.5 C 326.06 92.44 326.09 95.97 327 105.5 M 327 84.5 C 328.43 91.25 328.63 99.58 327 105.5 M 327 105.5 C 326.93 107.8 321.93 108.65 322.5 110 M 327 105.5 C 324.85 110.49 323.21 105.49 322.5 110 M 322.5 110 C 304.22 111 287.26 110.67 251.5 110 M 322.5 110 C 302.45 112.8 283.59 110.06 251.5 110 M 251.5 110 C 247.65 106.58 247.02 109.09 247 105.5 M 251.5 110 C 245.31 114.07 248.27 104.46 247 105.5 M 247 105.5 C 245.33 98.47 243.69 90.74 247 84.5 M 247 105.5 C 247.05 96.94 245.23 91.99 247 84.5 M 247 84.5 C 249.66 79.88 247.28 82.12 251.5 80 M 247 84.5 C 246.01 82.49 246.44 82.78 251.5 80" fill="none" stroke="#b85450" stroke-linejoin="round" stroke-linecap="round" stroke-miterlimit="10" pointer-events="all"/></g><g><g fill="rgb(0, 0, 0)" font-family="&quot;Helvetica&quot;" text-anchor="middle" font-size="12px"><text x="286.5" y="99.5">23</text></g></g></g><g data-cell-id="tBPTeh535Zqz1I_J7ef9-22"><g><path d="M 383 30 L 383 45 Q 383 55 373 55 L 297 55 Q 287 55 287 64.32 L 287 73.63" fill="none" stroke="rgb(0, 0, 0)" stroke-miterlimit="10" pointer-events="stroke"/><path d="M 287 78.88 L 283.5 71.88 L 287 73.63 L 290.5 71.88 Z" fill="rgb(0, 0, 0)" stroke="rgb(0, 0, 0)" stroke-miterlimit="10" pointer-events="all"/></g></g><g data-cell-id="tBPTeh535Zqz1I_J7ef9-23"><g><rect x="439" y="80" width="80" height="30" rx="4.5" ry="4.5" fill="rgb(255, 255, 255)" stroke="rgb(0, 0, 0)" pointer-events="all"/></g><g><g fill="rgb(0, 0, 0)" font-family="&quot;Helvetica&quot;" text-anchor="middle" font-size="12px"><text x="478.5" y="99.5">54</text></g></g></g><g data-cell-id="tBPTeh535Zqz1I_J7ef9-24"><g><path d="M 383 30 L 383 45 Q 383 55 393 55 L 469 55 Q 479 55 479 64.32 L 479 73.63" fill="none" stroke="rgb(0, 0, 0)" stroke-miterlimit="10" pointer-events="stroke"/><path d="M 479 78.88 L 475.5 71.88 L 479 73.63 L 482.5 71.88 Z" fill="rgb(0, 0, 0)" stroke="rgb(0, 0, 0)" stroke-miterlimit="10" pointer-events="all"/></g></g><g data-cell-id="tBPTeh535Zqz1I_J7ef9-83"><g><path d="M 117 175 L 57 175 L 57 335 L 120.63 335" fill="none" stroke="#6c8ebf" stroke-miterlimit="10" stroke-dasharray="3 3" pointer-events="stroke"/><path d="M 125.88 335 L 118.88 338.5 L 120.63 335 L 118.88 331.5 Z" fill="#6c8ebf" stroke="#6c8ebf" stroke-miterlimit="10" pointer-events="all"/></g></g><g data-cell-id="tBPTeh535Zqz1I_J7ef9-25"><g><rect x="117" y="160" width="80" height="30" rx="4.5" ry="4.5" fill="rgb(255, 255, 255)" stroke="rgb(0, 0, 0)" pointer-events="all"/></g><g><g fill="rgb(0, 0, 0)" font-family="&quot;Helvetica&quot;" text-anchor="middle" font-size="12px"><text x="156.5" y="179.5">3</text></g></g></g><g data-cell-id="tBPTeh535Zqz1I_J7ef9-26"><g><path d="M 287 110 L 287 125 Q 287 135 277 135 L 167 135 Q 157 135 157 144.32 L 157 153.63" fill="none" stroke="rgb(0, 0, 0)" stroke-miterlimit="10" pointer-events="stroke"/><path d="M 157 158.88 L 153.5 151.88 L 157 153.63 L 160.5 151.88 Z" fill="rgb(0, 0, 0)" stroke="rgb(0, 0, 0)" stroke-miterlimit="10" pointer-events="all"/></g></g><g data-cell-id="tBPTeh535Zqz1I_J7ef9-27"><g><rect x="337" y="160" width="80" height="30" rx="4.5" ry="4.5" fill="rgb(255, 255, 255)" stroke="rgb(0, 0, 0)" pointer-events="all"/></g><g><g fill="rgb(0, 0, 0)" font-family="&quot;Helvetica&quot;" text-anchor="middle" font-size="12px"><text x="376.5" y="179.5">25</text></g></g></g><g data-cell-id="tBPTeh535Zqz1I_J7ef9-28"><g><path d="M 287 110 L 287 125 Q 287 135 297 135 L 367 135 Q 377 135 377 144.32 L 377 153.63" fill="none" stroke="rgb(0, 0, 0)" stroke-miterlimit="10" pointer-events="stroke"/><path d="M 377 158.88 L 373.5 151.88 L 377 153.63 L 380.5 151.88 Z" fill="rgb(0, 0, 0)" stroke="rgb(0, 0, 0)" stroke-miterlimit="10" pointer-events="all"/></g></g><g data-cell-id="tBPTeh535Zqz1I_J7ef9-29"><g><rect x="187" y="240" width="80" height="30" rx="4.5" ry="4.5" fill="#ffe6cc" stroke="#d79b00" pointer-events="all"/></g><g><g fill="rgb(0, 0, 0)" font-family="&quot;Helvetica&quot;" text-anchor="middle" font-size="12px"><text x="226.5" y="259.5">18</text></g></g></g><g data-cell-id="tBPTeh535Zqz1I_J7ef9-30"><g><path d="M 157 190 L 157 205 Q 157 215 167 215 L 217 215 Q 227 215 227 224.32 L 227 233.63" fill="none" stroke="rgb(0, 0, 0)" stroke-miterlimit="10" pointer-events="stroke"/><path d="M 227 238.88 L 223.5 231.88 L 227 233.63 L 230.5 231.88 Z" fill="rgb(0, 0, 0)" stroke="rgb(0, 0, 0)" stroke-miterlimit="10" pointer-events="all"/></g></g><g data-cell-id="tBPTeh535Zqz1I_J7ef9-31"><g><rect x="277" y="240" width="80" height="30" rx="4.5" ry="4.5" fill="rgb(255, 255, 255)" stroke="rgb(0, 0, 0)" pointer-events="all"/></g><g><g fill="rgb(0, 0, 0)" font-family="&quot;Helvetica&quot;" text-anchor="middle" font-size="12px"><text x="316.5" y="259.5">24</text></g></g></g><g data-cell-id="tBPTeh535Zqz1I_J7ef9-32"><g><path d="M 377 190 L 377 205 Q 377 215 367 215 L 327 215 Q 317 215 317 224.32 L 317 233.63" fill="none" stroke="rgb(0, 0, 0)" stroke-miterlimit="10" pointer-events="stroke"/><path d="M 317 238.88 L 313.5 231.88 L 317 233.63 L 320.5 231.88 Z" fill="rgb(0, 0, 0)" stroke="rgb(0, 0, 0)" stroke-miterlimit="10" pointer-events="all"/></g></g><g data-cell-id="tBPTeh535Zqz1I_J7ef9-33"><g><rect x="397" y="240" width="80" height="30" rx="4.5" ry="4.5" fill="rgb(255, 255, 255)" stroke="rgb(0, 0, 0)" pointer-events="all"/></g><g><g fill="rgb(0, 0, 0)" font-family="&quot;Helvetica&quot;" text-anchor="middle" font-size="12px"><text x="436.5" y="259.5">26</text></g></g></g><g data-cell-id="tBPTeh535Zqz1I_J7ef9-34"><g><path d="M 377 190 L 377 205 Q 377 215 387 215 L 427 215 Q 437 215 437 224.32 L 437 233.63" fill="none" stroke="rgb(0, 0, 0)" stroke-miterlimit="10" pointer-events="stroke"/><path d="M 437 238.88 L 433.5 231.88 L 437 233.63 L 440.5 231.88 Z" fill="rgb(0, 0, 0)" stroke="rgb(0, 0, 0)" stroke-miterlimit="10" pointer-events="all"/></g></g><g data-cell-id="tBPTeh535Zqz1I_J7ef9-55"><g><ellipse cx="383" cy="425" rx="40" ry="15" fill="rgb(255, 255, 255)" stroke="rgb(0, 0, 0)" pointer-events="all"/></g><g><g fill="rgb(0, 0, 0)" font-family="&quot;Helvetica&quot;" text-anchor="middle" font-size="12px"><text x="382.5" y="429.5">50</text></g></g></g><g data-cell-id="tBPTeh535Zqz1I_J7ef9-57"><g><path d="M 383 440 L 383 455 Q 383 465 373 465 L 297 465 Q 287 465 287 474.32 L 287 483.63" fill="none" stroke="#d79b00" stroke-miterlimit="10" pointer-events="stroke"/><path d="M 287 488.88 L 283.5 481.88 L 287 483.63 L 290.5 481.88 Z" fill="#d79b00" stroke="#d79b00" stroke-miterlimit="10" pointer-events="all"/></g></g><g data-cell-id="tBPTeh535Zqz1I_J7ef9-58"><g><rect x="439" y="490" width="80" height="30" rx="4.5" ry="4.5" fill="rgb(255, 255, 255)" stroke="rgb(0, 0, 0)" pointer-events="all"/></g><g><g fill="rgb(0, 0, 0)" font-family="&quot;Helvetica&quot;" text-anchor="middle" font-size="12px"><text x="478.5" y="509.5">54</text></g></g></g><g data-cell-id="tBPTeh535Zqz1I_J7ef9-59"><g><path d="M 383 440 L 383 455 Q 383 465 393 465 L 469 465 Q 479 465 479 474.32 L 479 483.63" fill="none" stroke="rgb(0, 0, 0)" stroke-miterlimit="10" pointer-events="stroke"/><path d="M 479 488.88 L 475.5 481.88 L 479 483.63 L 482.5 481.88 Z" fill="rgb(0, 0, 0)" stroke="rgb(0, 0, 0)" stroke-miterlimit="10" pointer-events="all"/></g></g><g data-cell-id="tBPTeh535Zqz1I_J7ef9-62"><g><path d="M 287 520 L 287 535 Q 287 545 277 545 L 187 545 Q 177 545 177 554.32 L 177 563.63" fill="none" stroke="#d79b00" stroke-miterlimit="10" pointer-events="stroke"/><path d="M 177 568.88 L 173.5 561.88 L 177 563.63 L 180.5 561.88 Z" fill="#d79b00" stroke="#d79b00" stroke-miterlimit="10" pointer-events="all"/></g></g><g data-cell-id="tBPTeh535Zqz1I_J7ef9-63"><g><rect x="397" y="570" width="80" height="30" rx="4.5" ry="4.5" fill="rgb(255, 255, 255)" stroke="rgb(0, 0, 0)" pointer-events="all"/></g><g><g fill="rgb(0, 0, 0)" font-family="&quot;Helvetica&quot;" text-anchor="middle" font-size="12px"><text x="436.5" y="589.5">25</text></g></g></g><g data-cell-id="tBPTeh535Zqz1I_J7ef9-64"><g><path d="M 287 520 L 287 535 Q 287 545 297 545 L 427 545 Q 437 545 437 554.32 L 437 563.63" fill="none" stroke="#d79b00" stroke-miterlimit="10" pointer-events="stroke"/><path d="M 437 568.88 L 433.5 561.88 L 437 563.63 L 440.5 561.88 Z" fill="#d79b00" stroke="#d79b00" stroke-miterlimit="10" pointer-events="all"/></g></g><g data-cell-id="tBPTeh535Zqz1I_J7ef9-65"><g><rect x="247" y="490" width="80" height="30" rx="4.5" ry="4.5" fill="#ffe6cc" stroke="#d79b00" pointer-events="all"/></g><g><g fill="rgb(0, 0, 0)" font-family="&quot;Helvetica&quot;" text-anchor="middle" font-size="12px"><text x="286.5" y="509.5">18</text></g></g></g><g data-cell-id="tBPTeh535Zqz1I_J7ef9-67"><g><rect x="337" y="650" width="80" height="30" rx="4.5" ry="4.5" fill="rgb(255, 255, 255)" stroke="rgb(0, 0, 0)" pointer-events="all"/></g><g><g fill="rgb(0, 0, 0)" font-family="&quot;Helvetica&quot;" text-anchor="middle" font-size="12px"><text x="376.5" y="669.5">24</text></g></g></g><g data-cell-id="tBPTeh535Zqz1I_J7ef9-68"><g><path d="M 437 600 L 437 615 Q 437 625 427 625 L 387 625 Q 377 625 377 634.32 L 377 643.63" fill="none" stroke="rgb(0, 0, 0)" stroke-miterlimit="10" pointer-events="stroke"/><path d="M 377 648.88 L 373.5 641.88 L 377 643.63 L 380.5 641.88 Z" fill="rgb(0, 0, 0)" stroke="rgb(0, 0, 0)" stroke-miterlimit="10" pointer-events="all"/></g></g><g data-cell-id="tBPTeh535Zqz1I_J7ef9-69"><g><rect x="457" y="650" width="80" height="30" rx="4.5" ry="4.5" fill="rgb(255, 255, 255)" stroke="rgb(0, 0, 0)" pointer-events="all"/></g><g><g fill="rgb(0, 0, 0)" font-family="&quot;Helvetica&quot;" text-anchor="middle" font-size="12px"><text x="496.5" y="669.5">26</text></g></g></g><g data-cell-id="tBPTeh535Zqz1I_J7ef9-70"><g><path d="M 437 600 L 437 615 Q 437 625 447 625 L 487 625 Q 497 625 497 634.32 L 497 643.63" fill="none" stroke="rgb(0, 0, 0)" stroke-miterlimit="10" pointer-events="stroke"/><path d="M 497 648.88 L 493.5 641.88 L 497 643.63 L 500.5 641.88 Z" fill="rgb(0, 0, 0)" stroke="rgb(0, 0, 0)" stroke-miterlimit="10" pointer-events="all"/></g></g><g data-cell-id="tBPTeh535Zqz1I_J7ef9-71"><g><rect x="137" y="570" width="80" height="30" rx="4.5" ry="4.5" fill="rgb(255, 255, 255)" stroke="rgb(0, 0, 0)" pointer-events="all"/></g><g><g fill="rgb(0, 0, 0)" font-family="&quot;Helvetica&quot;" text-anchor="middle" font-size="12px"><text x="176.5" y="589.5">3</text></g></g></g><g data-cell-id="tBPTeh535Zqz1I_J7ef9-72"><g><path d="M 366 300.5 L 376 300.5 L 376 360.5 L 386.5 360.5 L 371 379.5 L 355.5 360.5 L 366 360.5 Z" fill="#ffe6cc" stroke="#d79b00" stroke-miterlimit="10" pointer-events="all"/></g></g><g data-cell-id="tBPTeh535Zqz1I_J7ef9-74"><g><path d="M 227 240 L 331.52 178.24" fill="none" stroke="#d79b00" stroke-miterlimit="10" pointer-events="stroke"/><path d="M 336.04 175.57 L 331.79 182.14 L 331.52 178.24 L 328.23 176.12 Z" fill="#d79b00" stroke="#d79b00" stroke-miterlimit="10" pointer-events="all"/></g></g><g data-cell-id="tBPTeh535Zqz1I_J7ef9-76"><g><path d="M 227 240 L 162.18 193.7" fill="none" stroke="#d79b00" stroke-miterlimit="10" pointer-events="stroke"/><path d="M 157.91 190.65 L 165.64 191.87 L 162.18 193.7 L 161.57 197.57 Z" fill="#d79b00" stroke="#d79b00" stroke-miterlimit="10" pointer-events="all"/></g></g><g data-cell-id="tBPTeh535Zqz1I_J7ef9-77"><g><rect x="127" y="320" width="80" height="30" rx="4.5" ry="4.5" fill="rgb(255, 255, 255)" stroke="rgb(0, 0, 0)" pointer-events="all"/></g><g><g fill="rgb(0, 0, 0)" font-family="&quot;Helvetica&quot;" text-anchor="middle" font-size="12px"><text x="166.5" y="339.5">15</text></g></g></g><g data-cell-id="tBPTeh535Zqz1I_J7ef9-79"><g><path d="M 227 270 L 227 285 Q 227 295 217 295 L 177 295 Q 167 295 167 304.32 L 167 313.63" fill="none" stroke="rgb(0, 0, 0)" stroke-miterlimit="10" pointer-events="stroke"/><path d="M 167 318.88 L 163.5 311.88 L 167 313.63 L 170.5 311.88 Z" fill="rgb(0, 0, 0)" stroke="rgb(0, 0, 0)" stroke-miterlimit="10" pointer-events="all"/></g></g><g data-cell-id="tBPTeh535Zqz1I_J7ef9-81"><g><path d="M 177 600 L 177 615 Q 177 625 187 625 L 237 625 Q 247 625 247 634.32 L 247 643.63" fill="none" stroke="#6c8ebf" stroke-miterlimit="10" pointer-events="stroke"/><path d="M 247 648.88 L 243.5 641.88 L 247 643.63 L 250.5 641.88 Z" fill="#6c8ebf" stroke="#6c8ebf" stroke-miterlimit="10" pointer-events="all"/></g></g><g data-cell-id="tBPTeh535Zqz1I_J7ef9-82"><g><rect x="207" y="650" width="80" height="30" rx="4.5" ry="4.5" fill="rgb(255, 255, 255)" stroke="rgb(0, 0, 0)" pointer-events="all"/></g><g><g fill="rgb(0, 0, 0)" font-family="&quot;Helvetica&quot;" text-anchor="middle" font-size="12px"><text x="246.5" y="669.5">15</text></g></g></g></g></g></g></svg>